<svg xmlns="http://www.w3.org/2000/svg" viewBox="0 0 32 32" fill="none">
  <rect width="32" height="32" rx="8" fill="#2563eb"/>
  <path fill="#fff" d="M8 10.5c0-1.1.9-2 2-2h12c1.1 0 2 .9 2 2v11c0 .6-.7.9-1.1.6l-5.9-3.9a2 2 0 0 0-2.2 0l-5.9 3.9c-.4.3-1.1 0-1.1-.6v-11Z"/>
  <path fill="#93c5fd" d="M16 8.5v14.2l5.9-3.9c.4-.3 1.1 0 1.1.6v-11c0-1.1-.9-2-2-2H10c-1.1 0-2 .9-2 2v11c0 .6.7.9 1.1.6L16 22.7V8.5Z" opacity=".35"/>
  <circle cx="23" cy="9" r="3" fill="#fef08a"/>
  <path stroke="#fef08a" stroke-width="1.2" stroke-linecap="round" d="M23 6.2v5.6M20.4 9h5.2"/>
</svg>
